# xmcd
#
# Track frame offsets:
#	150
#	23950
#	39905
#	60602
#	75522
#	91155
#	110130
#	127270
#	144922
#	163785
#	187212
#	206770
#	233805
#	258820
#	274877
#
# Disc length: 3967 seconds
#
# Revision: 4
# Processed by: cddbd v1.5.1PL2 Copyright (c) Steve Scherf et al.
# Submitted via: audiograbber 1.83.01
#
DISCID=d40f7d0f
DTITLE=George Thorogood and The Destroyers - Anthology [Disc 2]
DYEAR=2000
DGENRE=Rock
TTITLE0=Who Do You Love? (Live)
TTITLE1=Born To Be Bad
TTITLE2=You Talk Too Much
TTITLE3=I'm Ready
TTITLE4=Shake Your Money Maker
TTITLE5=If You Don't Start Drinkin' (I'm Gonna Leave)
TTITLE6=Hello Little Girl
TTITLE7=Long Distance Lover
TTITLE8=Get A Haircut
TTITLE9=Howlin' For My Baby
TTITLE10=Christine
TTITLE11=Let's Work Together (Live)
TTITLE12=Johnny B. Goode (Live)
TTITLE13=Rockin' My Life Away
TTITLE14=I Don't Trust Nobody
EXTD=YEAR: 2000
EXTT0=
EXTT1=
EXTT2=
EXTT3=
EXTT4=
EXTT5=
EXTT6=
EXTT7=
EXTT8=
EXTT9=
EXTT10=
EXTT11=
EXTT12=
EXTT13=
EXTT14=
PLAYORDER=
